<svg width="45" height="45" viewBox="0 0 45 45" fill="none" xmlns="http://www.w3.org/2000/svg">
<path d="M42.4817 44.465C41.9027 44.465 41.3238 44.2416 40.8835 43.8007L29.2378 32.1455C28.3633 31.2698 28.3513 29.8567 29.2137 28.969C31.8432 26.2635 33.2906 22.7005 33.2906 18.9262C33.2906 10.9849 26.8375 4.5232 18.9069 4.5232C10.9762 4.5232 4.52318 10.9849 4.52318 18.9262C4.52318 25.9978 9.78211 32.1213 16.7478 33.1661C17.9841 33.3533 18.8345 34.5007 18.6476 35.7387C18.4606 36.9767 17.3147 37.8282 16.0784 37.641C6.9114 36.2641 0 28.2202 0 18.9262C0 8.49081 8.47943 0 18.9008 0C29.3222 0 37.8017 8.49081 37.8017 18.9262C37.8017 23.1353 36.4327 27.1452 33.9057 30.4365L44.0678 40.6061C44.9484 41.4878 44.9484 42.919 44.0678 43.8068C43.6276 44.2476 43.0486 44.471 42.4696 44.471L42.4817 44.465Z" fill="#00F438"/>
<path d="M23.6973 37.8293C25.3294 37.8293 26.6525 36.5045 26.6525 34.8702C26.6525 33.236 25.3294 31.9111 23.6973 31.9111C22.0652 31.9111 20.7422 33.236 20.7422 34.8702C20.7422 36.5045 22.0652 37.8293 23.6973 37.8293Z" fill="#00F438"/>
</svg>
