<svg width="170" height="54" viewBox="0 0 170 54" fill="none" xmlns="http://www.w3.org/2000/svg">
<path d="M88.0767 6.91309H97.2598L106.959 30.576H107.372L117.071 6.91309H126.254V42.1323H119.031V19.2089H118.739L109.624 41.9604H104.706L95.5917 19.1229H95.2994V42.1323H88.0767V6.91309Z" fill="#00F438"/>
<path d="M48.3279 39.7658C44.8124 36.2503 42.8374 31.4823 42.8374 26.5106C42.8374 21.5389 44.8124 16.7709 48.3279 13.2554C51.8434 9.73987 56.6115 7.76487 61.5831 7.76487C66.5548 7.76487 71.3229 9.73986 74.8384 13.2554L69.5363 18.5575C67.427 16.4482 64.5662 15.2632 61.5831 15.2632C58.6001 15.2632 55.7393 16.4482 53.63 18.5575C51.5207 20.6668 50.3357 23.5276 50.3357 26.5106C50.3357 29.4936 51.5207 32.3544 53.63 34.4637L48.3279 39.7658Z" fill="white"/>
<path d="M74.8386 13.2552C78.3541 16.7707 80.3291 21.5387 80.3291 26.5104C80.3291 31.4821 78.3541 36.2501 74.8386 39.7656C71.3231 43.2811 66.555 45.2561 61.5834 45.2561C56.6117 45.2561 51.8436 43.2811 48.3281 39.7656L53.6302 34.4635C55.7395 36.5728 58.6004 37.7578 61.5834 37.7578C64.5664 37.7578 67.4272 36.5728 69.5365 34.4635C71.6458 32.3542 72.8308 29.4934 72.8308 26.5104C72.8308 23.5274 71.6458 20.6666 69.5365 18.5573L74.8386 13.2552Z" fill="#2D2D2D"/>
<path d="M169.372 26.5112C169.372 31.4829 167.397 36.2509 163.881 39.7665C160.366 43.282 155.598 45.257 150.626 45.257C145.654 45.257 140.886 43.282 137.371 39.7665C133.855 36.251 131.88 31.4829 131.88 26.5112L139.379 26.5112C139.379 29.4942 140.564 32.3551 142.673 34.4644C144.782 36.5737 147.643 37.7587 150.626 37.7587C153.609 37.7587 156.47 36.5737 158.579 34.4644C160.689 32.3551 161.874 29.4942 161.874 26.5112L169.372 26.5112Z" fill="white"/>
<path d="M131.88 26.5112C131.88 21.5396 133.855 16.7715 137.37 13.256C140.886 9.74049 145.654 7.7655 150.625 7.7655C155.597 7.7655 160.365 9.74049 163.881 13.256C167.396 16.7715 169.371 21.5396 169.371 26.5112L161.873 26.5112C161.873 23.5282 160.688 20.6674 158.579 18.5581C156.469 16.4488 153.608 15.2638 150.625 15.2638C147.642 15.2638 144.782 16.4488 142.672 18.5581C140.563 20.6674 139.378 23.5282 139.378 26.5112L131.88 26.5112Z" fill="#2D2D2D"/>
<path d="M9.55968 9.80276C13.8653 7.31695 18.982 6.64295 23.7843 7.92971C28.5864 9.21653 32.6804 12.3586 35.1661 16.6641L28.673 20.4131C27.1815 17.8297 24.7242 15.9449 21.8429 15.1729C18.9617 14.4009 15.892 14.8046 13.3087 16.2959C10.7526 17.7717 8.88192 20.1931 8.09484 23.0352C8.06772 23.1331 8.0431 23.2316 8.01867 23.3301C7.32666 26.1203 7.72762 29.0698 9.14464 31.5742C10.125 33.307 11.5552 34.765 13.3087 35.7774C15.8921 37.2689 18.9625 37.6734 21.8439 36.9014C24.7251 36.1293 27.1815 34.2435 28.673 31.6602L35.1671 35.4102C32.6813 39.7157 28.5864 42.8568 23.7843 44.1436C18.9821 45.4303 13.8652 44.7573 9.55968 42.2715C6.68491 40.6118 4.32972 38.2341 2.69836 35.4082V35.4092C2.67422 35.3674 2.65086 35.3252 2.62707 35.2832C2.58782 35.214 2.54826 35.145 2.50988 35.0752C2.46687 34.9971 2.42476 34.9185 2.38293 34.8399C2.35394 34.7854 2.32545 34.7306 2.29699 34.6758C2.25939 34.6034 2.22227 34.5308 2.18566 34.458C2.15094 34.389 2.11701 34.3195 2.08312 34.25C2.05191 34.186 2.0208 34.122 1.99035 34.0576C1.95745 33.9882 1.92475 33.9186 1.89269 33.8487C1.85976 33.7768 1.82702 33.705 1.79504 33.6328C1.76226 33.5589 1.73019 33.4846 1.69836 33.4102C1.66999 33.3439 1.64195 33.2775 1.61437 33.211C1.58734 33.1457 1.56061 33.0803 1.53429 33.0147C1.49694 32.9215 1.46074 32.828 1.42492 32.7344C1.4071 32.6878 1.38866 32.6415 1.37121 32.5947C1.33935 32.5094 1.30902 32.4236 1.27843 32.3379C1.25305 32.2668 1.22779 32.1956 1.20324 32.124C1.1816 32.061 1.16071 31.9978 1.13976 31.9346C1.10953 31.8434 1.07976 31.752 1.05089 31.6602C1.03288 31.6029 1.01464 31.5457 0.997184 31.4883C0.975065 31.4155 0.953009 31.3427 0.931754 31.2696C0.90646 31.1825 0.882529 31.0952 0.858512 31.0078C0.847583 30.9681 0.835983 30.9285 0.825309 30.8887C0.817481 30.8595 0.81053 30.83 0.802848 30.8008C0.778363 30.7076 0.755571 30.614 0.732535 30.5205C0.721614 30.4762 0.709922 30.4321 0.699332 30.3877C0.672347 30.2746 0.646074 30.1614 0.621207 30.0479C0.614223 30.016 0.607514 29.9841 0.600699 29.9522C0.578627 29.8488 0.557539 29.7453 0.537223 29.6416C0.524655 29.5775 0.512 29.5134 0.500113 29.4492C0.486697 29.3768 0.474587 29.3041 0.462027 29.2315C0.449131 29.1569 0.435923 29.0825 0.423942 29.0078C0.411106 28.9279 0.399607 28.8477 0.387809 28.7676C0.377689 28.6989 0.366883 28.6303 0.357535 28.5615C0.345075 28.4699 0.334458 28.378 0.323356 28.2862C0.315876 28.2243 0.307752 28.1625 0.300895 28.1006C0.291311 28.0141 0.282907 27.9275 0.274527 27.8408C0.268765 27.7812 0.262137 27.7217 0.256949 27.6621C0.248031 27.5597 0.240745 27.4571 0.233512 27.3545C0.229566 27.2985 0.225234 27.2426 0.221793 27.1865C0.216993 27.1085 0.213898 27.0303 0.210074 26.9522C0.206494 26.8789 0.202051 26.8057 0.199332 26.7324C0.196429 26.6544 0.194423 26.5762 0.192496 26.4981C0.190415 26.4134 0.188547 26.3288 0.187613 26.2442C0.183283 25.8541 0.191944 25.4637 0.212027 25.0733C0.215046 25.0147 0.218225 24.9561 0.221793 24.8975C0.228472 24.7877 0.236613 24.6781 0.245231 24.5684C0.248326 24.529 0.250676 24.4896 0.25402 24.4502C0.276187 24.1892 0.304817 23.9285 0.338004 23.668C0.345597 23.6084 0.353276 23.5488 0.361442 23.4893C0.369217 23.4326 0.377556 23.376 0.385856 23.3194C0.398402 23.2337 0.410209 23.148 0.423942 23.0625C0.435834 22.9885 0.449236 22.9148 0.462027 22.8408C0.474591 22.7682 0.486693 22.6955 0.500113 22.6231C0.515141 22.5419 0.530873 22.4609 0.546988 22.3799C0.560847 22.3102 0.574328 22.2405 0.588981 22.1709C0.609524 22.0735 0.631307 21.9762 0.653434 21.8789C0.663065 21.8366 0.672804 21.7943 0.682731 21.752C0.710085 21.6355 0.740009 21.5195 0.769645 21.4033C0.77901 21.3666 0.787398 21.3297 0.796988 21.293C0.806414 21.257 0.815663 21.2206 0.825309 21.1846C0.841937 21.1225 0.85982 21.0609 0.877066 20.999C0.891135 20.9486 0.904563 20.898 0.919059 20.8477C0.946904 20.751 0.975645 20.6547 1.005 20.5586C1.02112 20.5058 1.03723 20.4531 1.05382 20.4004C1.08641 20.297 1.12107 20.1944 1.15539 20.0918C1.17138 20.044 1.18685 19.996 1.20324 19.9483C1.22779 19.8768 1.25304 19.8055 1.27843 19.7344C1.30906 19.6486 1.34028 19.563 1.37218 19.4776C1.39754 19.4097 1.42322 19.342 1.44933 19.2744C1.47153 19.2171 1.49394 19.1598 1.51671 19.1026C1.55043 19.0179 1.58532 18.9337 1.62023 18.8496C1.6473 18.7844 1.67444 18.7193 1.70226 18.6543C1.74557 18.5532 1.79004 18.4528 1.83507 18.3526C1.84839 18.3229 1.86164 18.2933 1.87511 18.2637C1.92134 18.1623 1.96874 18.0615 2.01671 17.961C2.03378 17.9252 2.0502 17.8892 2.0675 17.8535C2.11226 17.7613 2.15798 17.6696 2.20422 17.5781C2.23423 17.5188 2.26437 17.4595 2.29504 17.4004C2.34504 17.3041 2.39672 17.2087 2.44836 17.1133C2.46291 17.0864 2.47663 17.0591 2.49132 17.0322C4.12745 14.0451 6.56124 11.5339 9.55968 9.80276Z" fill="#00F438"/>
</svg>
