<?xml version="1.0" encoding="UTF-8"?>
<svg id="_레이어_2" data-name="레이어 2" xmlns="http://www.w3.org/2000/svg" viewBox="0 0 203.16 247.25">
  <defs>
    <style>
      .cls-1 {
        fill: #fff;
      }
    </style>
  </defs>
  <g id="_迹_1" data-name="卵迹_1">
    <g>
      <path class="cls-1" d="M126.86,221.97c0,13.96-11.32,25.28-25.28,25.28s-25.28-11.32-25.28-25.28h50.56Z"/>
      <path class="cls-1" d="M177.88,170.34v-69.93,1.17c0-35.89-24.79-65.98-58.18-74.12v-9.35c0-10-8.11-18.11-18.11-18.11s-18.11,8.11-18.11,18.11v9.35c-33.39,8.13-58.18,38.22-58.18,74.12v-1.17s0,69.93,0,69.93L0,195.89v12.64h203.16v-12.64l-25.28-25.55ZM151.79,102.88v79.34H51.37v-82.21c0-27.73,22.48-50.21,50.21-50.21s50.21,22.48,50.21,50.21v2.87Z"/>
    </g>
  </g>
</svg>