<svg width="179" height="188" viewBox="0 0 179 188" fill="none" xmlns="http://www.w3.org/2000/svg">
<g filter="url(#filter0_d_298_30)">
<rect x="4" width="171" height="180" fill="black"/>
<path d="M92.9629 72.9977H101.213L109.927 93.5273H110.298L119.012 72.9977H127.262V103.553H120.773V83.6653H120.51L112.322 103.404H107.903L99.7146 83.5907H99.4519V103.553H92.9629V72.9977Z" fill="#615D67"/>
<path d="M57.2518 101.5C54.0934 98.4503 52.319 94.3136 52.319 90.0002C52.319 85.6869 54.0934 81.5502 57.2518 78.5002C60.4102 75.4502 64.6939 73.7367 69.1606 73.7367C73.6272 73.7367 77.9109 75.4502 81.0693 78.5002L76.3058 83.1002C74.4108 81.2702 71.8406 80.2421 69.1606 80.2421C66.4806 80.2421 63.9103 81.2702 62.0153 83.1002C60.1203 84.9302 59.0556 87.4122 59.0556 90.0002C59.0556 92.5882 60.1203 95.0703 62.0153 96.9003L57.2518 101.5Z" fill="white"/>
<path d="M81.0685 78.5C84.2269 81.55 86.0013 85.6867 86.0013 90C86.0013 94.3134 84.2269 98.4501 81.0685 101.5C77.9101 104.55 73.6264 106.264 69.1598 106.264C64.6931 106.264 60.4094 104.55 57.251 101.5L62.0145 96.9C63.9095 98.73 66.4798 99.7581 69.1597 99.7581C71.8397 99.7581 74.41 98.73 76.305 96.9C78.2001 95.07 79.2647 92.588 79.2647 90C79.2647 87.412 78.2001 84.93 76.305 83.1L81.0685 78.5Z" fill="#2D2D2D"/>
<path d="M166 90.0007C166 94.3141 164.225 98.4508 161.067 101.501C157.908 104.551 153.625 106.264 149.158 106.264C144.691 106.264 140.408 104.551 137.249 101.501C134.091 98.4508 132.316 94.3141 132.316 90.0007L139.053 90.0007C139.053 92.5887 140.118 95.0708 142.013 96.9008C143.908 98.7308 146.478 99.7588 149.158 99.7588C151.838 99.7588 154.408 98.7308 156.303 96.9008C158.198 95.0708 159.263 92.5887 159.263 90.0007L166 90.0007Z" fill="white"/>
<path d="M132.316 90.0007C132.316 85.6874 134.09 81.5507 137.249 78.5007C140.407 75.4507 144.691 73.7372 149.157 73.7372C153.624 73.7372 157.908 75.4507 161.066 78.5007C164.225 81.5507 165.999 85.6874 165.999 90.0007L159.262 90.0007C159.262 87.4127 158.198 84.9307 156.303 83.1007C154.408 81.2707 151.837 80.2426 149.157 80.2426C146.477 80.2426 143.907 81.2707 142.012 83.1007C140.117 84.9307 139.053 87.4127 139.053 90.0007L132.316 90.0007Z" fill="#2D2D2D"/>
<path d="M22.421 75.5047C26.2893 73.3481 30.8863 72.7633 35.2007 73.8797C39.515 74.9961 43.1931 77.7221 45.4264 81.4575L39.5928 84.7101C38.2528 82.4688 36.0452 80.8336 33.4565 80.1637C30.868 79.494 28.1101 79.8442 25.7892 81.1381C23.4928 82.4185 21.8121 84.5192 21.105 86.985C21.0806 87.0699 21.0585 87.1554 21.0366 87.2408C20.4148 89.6616 20.7751 92.2205 22.0482 94.3933C22.9289 95.8966 24.2138 97.1615 25.7892 98.0399C28.1102 99.3339 30.8687 99.6849 33.4574 99.0151C36.046 98.3452 38.2528 96.7091 39.5928 94.4679L45.4273 97.7213C43.194 101.457 39.5151 104.182 35.2007 105.298C30.8863 106.415 26.2892 105.831 22.421 103.674C19.8383 102.234 17.7223 100.171 16.2567 97.7196V97.7205C16.235 97.6842 16.214 97.6476 16.1926 97.6112C16.1574 97.5511 16.1218 97.4912 16.0874 97.4307C16.0487 97.3629 16.0109 97.2948 15.9733 97.2265C15.9472 97.1793 15.9217 97.1317 15.8961 97.0842C15.8623 97.0214 15.829 96.9584 15.7961 96.8953C15.7649 96.8354 15.7344 96.7751 15.7039 96.7148C15.6759 96.6593 15.648 96.6037 15.6206 96.5479C15.591 96.4876 15.5617 96.4272 15.5329 96.3666C15.5033 96.3043 15.4739 96.2419 15.4451 96.1793C15.4157 96.1152 15.3869 96.0507 15.3583 95.9862C15.3328 95.9287 15.3076 95.8711 15.2828 95.8133C15.2585 95.7567 15.2345 95.7 15.2109 95.643C15.1773 95.5622 15.1448 95.4811 15.1126 95.3999C15.0966 95.3595 15.08 95.3193 15.0643 95.2787C15.0357 95.2047 15.0085 95.1302 14.981 95.0559C14.9582 94.9942 14.9355 94.9324 14.9134 94.8703C14.894 94.8157 14.8752 94.7608 14.8564 94.706C14.8293 94.6268 14.8025 94.5475 14.7766 94.4679C14.7604 94.4182 14.744 94.3686 14.7283 94.3188C14.7084 94.2556 14.6886 94.1924 14.6695 94.129C14.6468 94.0535 14.6253 93.9777 14.6037 93.9019C14.5939 93.8675 14.5835 93.8331 14.5739 93.7986C14.5669 93.7732 14.5606 93.7477 14.5537 93.7223C14.5317 93.6415 14.5112 93.5603 14.4905 93.4792C14.4807 93.4407 14.4702 93.4024 14.4607 93.3639C14.4365 93.2658 14.4129 93.1676 14.3905 93.0691C14.3843 93.0414 14.3782 93.0137 14.3721 92.986C14.3523 92.8964 14.3333 92.8066 14.3151 92.7166C14.3038 92.661 14.2924 92.6054 14.2817 92.5497C14.2697 92.4868 14.2588 92.4238 14.2475 92.3608C14.2359 92.2961 14.2241 92.2315 14.2133 92.1668C14.2018 92.0974 14.1914 92.0278 14.1808 91.9583C14.1717 91.8987 14.162 91.8392 14.1536 91.7796C14.1424 91.7 14.1329 91.6203 14.1229 91.5406C14.1162 91.487 14.1089 91.4334 14.1028 91.3797C14.0941 91.3046 14.0866 91.2295 14.0791 91.1543C14.0739 91.1026 14.0679 91.051 14.0633 90.9992C14.0553 90.9104 14.0487 90.8214 14.0422 90.7324C14.0387 90.6838 14.0348 90.6352 14.0317 90.5866C14.0274 90.5189 14.0246 90.4511 14.0212 90.3833C14.0179 90.3197 14.0139 90.2562 14.0115 90.1927C14.0089 90.1249 14.0071 90.0571 14.0054 89.9893C14.0035 89.9159 14.0018 89.8425 14.001 89.769C13.9971 89.4307 14.0049 89.0919 14.0229 88.7532C14.0256 88.7023 14.0285 88.6515 14.0317 88.6007C14.0377 88.5055 14.045 88.4103 14.0527 88.3152C14.0555 88.281 14.0576 88.2468 14.0606 88.2126C14.0806 87.9862 14.1063 87.76 14.1361 87.534C14.1429 87.4823 14.1498 87.4306 14.1571 87.3789C14.1641 87.3298 14.1716 87.2807 14.1791 87.2315C14.1904 87.1572 14.201 87.0828 14.2133 87.0087C14.224 86.9445 14.236 86.8805 14.2475 86.8164C14.2588 86.7534 14.2697 86.6903 14.2817 86.6274C14.2952 86.557 14.3094 86.4867 14.3238 86.4165C14.3363 86.356 14.3484 86.2955 14.3616 86.2351C14.38 86.1506 14.3996 86.0662 14.4195 85.9818C14.4281 85.9451 14.4369 85.9084 14.4458 85.8717C14.4704 85.7706 14.4973 85.67 14.5239 85.5692C14.5323 85.5374 14.5398 85.5053 14.5485 85.4735C14.5569 85.4422 14.5652 85.4107 14.5739 85.3794C14.5888 85.3256 14.6049 85.2721 14.6204 85.2184C14.633 85.1747 14.6451 85.1308 14.6581 85.0871C14.6831 85.0033 14.709 84.9197 14.7353 84.8363C14.7498 84.7906 14.7643 84.7448 14.7792 84.6991C14.8085 84.6094 14.8396 84.5204 14.8704 84.4314C14.8848 84.3899 14.8987 84.3482 14.9134 84.3068C14.9355 84.2448 14.9582 84.183 14.981 84.1213C15.0085 84.0468 15.0366 83.9725 15.0652 83.8984C15.088 83.8395 15.1111 83.7808 15.1345 83.7222C15.1545 83.6724 15.1746 83.6227 15.1951 83.5731C15.2254 83.4996 15.2567 83.4266 15.2881 83.3536C15.3124 83.2971 15.3368 83.2405 15.3618 83.1842C15.4007 83.0965 15.4406 83.0093 15.4811 82.9224C15.4931 82.8967 15.505 82.871 15.5171 82.8453C15.5586 82.7573 15.6012 82.6698 15.6443 82.5826C15.6596 82.5516 15.6744 82.5204 15.6899 82.4895C15.7301 82.4094 15.7712 82.3298 15.8127 82.2505C15.8397 82.199 15.8668 82.1476 15.8943 82.0963C15.9393 82.0127 15.9857 81.93 16.0321 81.8472C16.0452 81.8239 16.0575 81.8002 16.0707 81.7769C17.5406 79.1853 19.7272 77.0066 22.421 75.5047Z" fill="#615D67"/>
</g>
<defs>
<filter id="filter0_d_298_30" x="0" y="0" width="179" height="188" filterUnits="userSpaceOnUse" color-interpolation-filters="sRGB">
<feFlood flood-opacity="0" result="BackgroundImageFix"/>
<feColorMatrix in="SourceAlpha" type="matrix" values="0 0 0 0 0 0 0 0 0 0 0 0 0 0 0 0 0 0 127 0" result="hardAlpha"/>
<feOffset dy="4"/>
<feGaussianBlur stdDeviation="2"/>
<feComposite in2="hardAlpha" operator="out"/>
<feColorMatrix type="matrix" values="0 0 0 0 0 0 0 0 0 0 0 0 0 0 0 0 0 0 0.25 0"/>
<feBlend mode="normal" in2="BackgroundImageFix" result="effect1_dropShadow_298_30"/>
<feBlend mode="normal" in="SourceGraphic" in2="effect1_dropShadow_298_30" result="shape"/>
</filter>
</defs>
</svg>
